<?xml version="1.0" encoding="UTF-8" standalone="no"?>
<svg width="512" height="512" xmlns="http://www.w3.org/2000/svg">
 <g>
  <path d="m512,460.90002c0,28.10501 -23.02002,51.09998 -51.15558,51.09998l-409.24441,0c-28.13555,0 -51.15555,-22.99496 -51.15555,-51.09998l0,-408.80001c0,-28.105 23.02,-51.1 51.15555,-51.1l409.24441,0c28.13556,0 51.15558,22.995 51.15558,51.1l0,408.80001l0,0z" id="Shape" fill="#4ad34a"/>
  <path fill="#ffffff" d="m445,386.70001l-84.79999,-85.89999c13.79999,-24.10001 21,-50.90001 21,-77.90001c0,-87.60001 -71.20001,-158.89999 -158.60002,-158.89999c-87.39999,-0.00002 -158.59999,71.29998 -158.59999,158.89997c0,87.60001 71.2,158.89999 158.60001,158.89999c27.90001,0 55.5,-7.70001 80.10001,-22.39999l84.39999,85.60001c1.89999,1.89999 4.60001,3.09998 7.30002,3.09998c2.69998,0 5.39999,-1.09998 7.29999,-3.09998l43.29999,-43.80002c4,-4.09998 4,-10.49997 0,-14.49997zm-222.39999,-260.80001c53.39999,0 96.80002,43.49999 96.80002,96.99999c0,53.5 -43.40002,97 -96.80002,97c-53.40001,0 -96.8,-43.5 -96.8,-97c0,-53.5 43.39999,-96.99999 96.8,-96.99999z"/>
 </g>
</svg>